<?xml version="1.0" standalone="no"?><!DOCTYPE svg PUBLIC "-//W3C//DTD SVG 1.1//EN" "http://www.w3.org/Graphics/SVG/1.1/DTD/svg11.dtd"><svg t="1583811909034" class="icon" viewBox="0 0 1024 1024" version="1.1" xmlns="http://www.w3.org/2000/svg" p-id="2483" xmlns:xlink="http://www.w3.org/1999/xlink" width="200" height="200"><defs><style type="text/css"></style></defs><path d="M511 961C264 961 63 760 63 513S264 65 511 65s448 201 448 448c0 247.1-201 448-448 448z m0-843.3C293 117.7 115.7 295 115.7 513S293 908.3 511 908.3 906.3 731 906.3 513c0-217.9-177.3-395.3-395.3-395.3z" p-id="2484" fill="#ffffff"></path><path d="M511 163c-194.1 0-351.4 157.3-351.4 351.4 0 194.1 157.3 351.4 351.4 351.4s351.4-157.3 351.4-351.4C862.4 320.3 705.1 163 511 163z m144.1 382.4C631.4 569.5 599 583 565.2 583c-23.3 0-45.9-6.6-65.5-18.5L472 592.2l20.1 20.1-41.8 41.8-20.1-20.1-12.5 12.5 21.7 21.7-41.8 41.8-21.7-21.7-13.7 13.7-41.8-41.8 137.1-137.1c-12.7-20.1-19.8-43.4-19.8-67.6 0-33.8 13.5-66.2 37.6-89.9 23.7-24.1 56.1-37.6 89.9-37.6 33.8 0 66.2 13.5 89.9 37.6 24.1 23.7 37.6 56.1 37.6 89.9 0 33.8-13.6 66.2-37.6 89.9z" p-id="2485" fill="#ffffff"></path><path d="M565.2 387c-18.1 0-35.5 7.4-48.1 20.4-13 12.6-20.4 29.9-20.4 48.1 0 18.1 7.4 35.5 20.4 48.1 12.6 13.1 30 20.4 48.1 20.4s35.5-7.4 48.1-20.4c13.1-12.6 20.4-30 20.4-48.1s-7.4-35.5-20.4-48.1c-12.6-13-30-20.4-48.1-20.4z" p-id="2486" fill="#ffffff"></path></svg>